<?xml version="1.0" standalone="no"?>
<!DOCTYPE svg PUBLIC "-//W3C//DTD SVG 20010904//EN"
 "http://www.w3.org/TR/2001/REC-SVG-20010904/DTD/svg10.dtd">
<svg version="1.0" xmlns="http://www.w3.org/2000/svg"
 width="16.000000pt" height="16.000000pt" viewBox="0 0 512.000000 512.000000"
 preserveAspectRatio="xMidYMid meet">

<g transform="translate(0.000000,512.000000) scale(0.100000,-0.100000)"
fill="#b8860b" stroke="none">
<path d="M2321 5110 c-497 -48 -990 -251 -1376 -565 -114 -92 -294 -274 -384
-387 -229 -287 -417 -675 -495 -1023 -49 -218 -60 -325 -60 -575 0 -250 11
-357 60 -575 79 -355 272 -749 509 -1040 92 -114 274 -294 387 -384 287 -229
675 -417 1023 -495 218 -49 325 -60 575 -60 250 0 357 11 575 60 261 58 603
204 828 353 389 259 688 599 893 1016 125 255 196 484 241 775 24 161 24 539
0 700 -45 291 -116 520 -241 775 -134 272 -283 480 -498 692 -211 209 -404
346 -673 478 -252 124 -486 197 -765 240 -126 19 -468 27 -599 15z m449 -563
c176 -62 315 -202 377 -378 34 -97 42 -243 19 -343 -66 -280 -312 -475 -598
-476 -107 0 -168 15 -275 66 -152 73 -260 199 -319 374 -27 78 -27 272 0 350
73 214 239 373 443 425 93 23 260 15 353 -18z m-1471 -1382 c275 -65 470 -313
471 -597 0 -107 -15 -168 -66 -275 -94 -197 -284 -325 -505 -340 -119 -8 -206
9 -316 63 -346 167 -451 609 -220 921 81 109 212 195 343 227 78 19 214 19
293 1z m2815 -15 c225 -57 400 -234 452 -456 23 -100 15 -246 -19 -343 -84
-238 -295 -396 -548 -409 -359 -18 -648 254 -649 610 0 102 14 167 60 263 125
268 419 408 704 335z m-1460 -340 c100 -38 176 -146 176 -250 0 -104 -76 -212
-176 -250 -69 -25 -119 -25 -188 0 -100 38 -176 146 -176 250 0 102 76 212
173 249 67 26 123 26 191 1z m28 -1051 c29 -6 95 -31 145 -55 244 -117 380
-387 334 -660 -30 -176 -157 -348 -318 -432 -110 -57 -193 -75 -318 -70 -207
10 -373 105 -490 281 -111 167 -126 414 -35 601 77 161 235 289 407 330 71 17
204 20 275 5z"/>
</g>
</svg>
